<?xml version="1.0" ?><svg fill="rgb(217,217,217)" viewBox="0 0 32 32" xmlns="http://www.w3.org/2000/svg"><defs><style>.cls-1{fill:none;}</style></defs><title/><g id="FACEBOOK"><rect class="cls-1" height="32" id="Frame" width="32"/><path d="M16,2A13.72986,13.72986,0,0,0,2,16.07036,14.09717,14.09717,0,0,0,14,30V19.08544H10V15.06533h4v-4.0201a3.67138,3.67138,0,0,1,4-4.0201h4v4.0201H19.14a1.08021,1.08021,0,0,0-1.14,1.005v3.01507h4l-.5,4.02011H18V30A14.05856,14.05856,0,0,0,30,16.07036,13.88074,13.88074,0,0,0,16,2Z" data-name="Facebook" id="Facebook-2"/></g></svg>