<?xml version="1.0" standalone="no"?>
<!DOCTYPE svg PUBLIC "-//W3C//DTD SVG 20010904//EN"
 "http://www.w3.org/TR/2001/REC-SVG-20010904/DTD/svg10.dtd">
<svg version="1.0" xmlns="http://www.w3.org/2000/svg"
 width="32.000000pt" height="32.000000pt" viewBox="0 0 32.000000 32.000000"
 preserveAspectRatio="xMidYMid meet">

<g transform="translate(0.000000,32.000000) scale(0.100000,-0.100000)"
fill="rgb(217,217,217)" stroke="none">
<path d="M90 298 c-33 -17 -51 -35 -67 -68 -29 -56 -29 -84 -1 -140 25 -48 89
-90 138 -90 49 0 113 42 138 90 28 56 28 84 0 140 -25 48 -89 90 -138 90 -14
0 -46 -10 -70 -22z m82 -85 c-2 -16 -9 -34 -15 -41 -7 -9 -5 -18 8 -31 37 -41
-16 -87 -71 -62 -29 13 -29 39 1 55 11 6 22 12 24 14 3 1 -5 9 -17 18 -41 29
-15 74 42 74 31 0 33 -2 28 -27z m58 -28 c0 -8 7 -15 16 -15 13 0 11 -5 -7
-25 -18 -18 -25 -21 -27 -10 -2 8 -10 15 -18 15 -8 0 -14 5 -14 10 0 6 7 10
15 10 8 0 15 7 15 15 0 8 5 15 10 15 6 0 10 -7 10 -15z"/>
<path d="M110 201 c0 -11 5 -23 11 -27 14 -8 29 14 22 33 -8 20 -33 16 -33 -6z"/>
<path d="M107 124 c-17 -18 -6 -35 21 -32 16 2 27 9 27 18 0 16 -36 26 -48 14z"/>
</g>
</svg>
