<?xml version="1.0" standalone="no"?>
<!DOCTYPE svg PUBLIC "-//W3C//DTD SVG 20010904//EN"
 "http://www.w3.org/TR/2001/REC-SVG-20010904/DTD/svg10.dtd">
<svg  version="1.0" xmlns="http://www.w3.org/2000/svg"
 width="512.000000pt" height="512.000000pt" fill= "blue" viewBox="0 0 512.000000 512.000000"
 preserveAspectRatio="xMidYMid meet">

<g transform="translate(0.000000,512.000000) scale(0.100000,-0.100000)"
fill="rgb(217,217,217)" stroke="none">
<path d="M2280 5076 c-536 -67 -1004 -274 -1389 -614 -399 -352 -676 -814
-794 -1327 -54 -230 -62 -303 -62 -575 0 -272 8 -345 62 -575 148 -642 539
-1194 1103 -1560 268 -173 600 -301 930 -359 310 -54 668 -45 983 25 901 200
1624 883 1881 1777 250 871 3 1831 -635 2471 -397 398 -871 637 -1436 726
-136 22 -508 28 -643 11z m555 -157 c786 -91 1480 -575 1840 -1284 469 -923
288 -2039 -447 -2762 -133 -131 -215 -198 -363 -295 -624 -411 -1393 -505
-2095 -256 -817 289 -1418 1007 -1554 1858 -61 380 -35 726 83 1105 190 609
655 1142 1242 1419 408 193 849 266 1294 215z"/>
<path d="M1330 2595 l0 -1406 833 4 c792 3 839 4 986 25 267 38 358 69 484
164 127 94 225 248 268 418 18 72 21 104 17 220 -4 113 -9 148 -32 215 -37
109 -83 181 -166 258 -76 73 -204 142 -317 173 l-63 17 102 51 c80 39 117 64
169 116 242 242 237 667 -10 920 -97 99 -216 162 -380 203 -84 20 -111 21
-988 24 l-903 4 0 -1406z m1386 824 c91 -16 161 -61 194 -124 35 -69 36 -188
1 -258 -55 -113 -138 -137 -475 -137 l-236 0 0 265 0 265 227 0 c124 0 255 -5
289 -11z m150 -1082 c121 -40 187 -130 186 -255 -1 -167 -100 -260 -302 -282
-52 -6 -196 -10 -320 -8 l-225 3 -3 283 -2 284 307 -4 c254 -4 317 -7 359 -21z"/>
</g>
</svg>
